<?xml version="1.0"?>
<svg version="1.1" xmlns="http://www.w3.org/2000/svg" width="400" height="200" style="border: dashed 2px #aaa"><path fill="#" d="M35.804,114.42l0,2.38l-8.904,0l0-2.38l2.1-0.756l-0.672-2.044l-6.216,0l-0.7,2.016l2.184,0.784l0,2.38l-8.456,0l0-2.38l2.044-0.784l6.16-16.492l4.48-0.084l6.02,16.576z M27.404,108.624l-2.1-6.636l-2.212,6.636l4.312,0z M45.56228,100.42l0,13.412c0,4.872-1.456,7.448-6.384,7.448c-0.896,0-2.128-0.196-2.128-0.196l0.364-2.884l1.344,0c1.68,0,2.464-0.924,2.464-2.688l0-15.092l-2.1-0.84l0-2.38l8.54-0.14l0,2.52z"/><path fill="#" d=""/></svg>
