<svg width="313" height="249" viewBox="0 0 313 249" fill="none" xmlns="http://www.w3.org/2000/svg">
<path d="M1.4 197L14.4 162.6H19.8L32.75 197H28.3L24.75 187.6H9.3L5.75 197H1.4ZM10.6 183.85H23.45L17.15 167H16.9L10.6 183.85ZM38.4797 197V171.5H42.1797L42.3297 175.15H42.6297C42.9964 174.35 43.4964 173.65 44.1297 173.05C44.7964 172.45 45.6797 171.983 46.7797 171.65C47.913 171.283 49.3464 171.1 51.0797 171.1C52.9797 171.1 54.4964 171.3 55.6297 171.7C56.763 172.1 57.6297 172.7 58.2297 173.5C58.863 174.3 59.2797 175.333 59.4797 176.6C59.6797 177.833 59.7797 179.317 59.7797 181.05V197H55.7297V182.45C55.7297 180.717 55.6464 179.35 55.4797 178.35C55.3464 177.317 55.063 176.55 54.6297 176.05C54.1964 175.517 53.563 175.167 52.7297 175C51.8964 174.833 50.7964 174.75 49.4297 174.75C47.7964 174.75 46.513 174.967 45.5797 175.4C44.6464 175.8 43.963 176.4 43.5297 177.2C43.0964 177.967 42.8297 178.917 42.7297 180.05C42.6297 181.15 42.5797 182.417 42.5797 183.85V197H38.4797ZM70.5613 197V174.95H65.4113V171.5H70.5613V164.1H74.6113V171.5H80.7113V174.95H74.6113V197H70.5613ZM96.1871 197.4C94.0871 197.4 92.3371 197.267 90.9371 197C89.5704 196.767 88.4871 196.367 87.6871 195.8C86.8871 195.233 86.2871 194.45 85.8871 193.45C85.5204 192.45 85.2871 191.2 85.1871 189.7C85.0871 188.167 85.0371 186.35 85.0371 184.25C85.0371 182.15 85.0871 180.35 85.1871 178.85C85.2871 177.317 85.5204 176.05 85.8871 175.05C86.2871 174.05 86.8871 173.267 87.6871 172.7C88.4871 172.133 89.5704 171.733 90.9371 171.5C92.3371 171.233 94.0871 171.1 96.1871 171.1C98.3204 171.1 100.07 171.233 101.437 171.5C102.804 171.733 103.887 172.133 104.687 172.7C105.52 173.267 106.12 174.05 106.487 175.05C106.887 176.05 107.137 177.317 107.237 178.85C107.337 180.35 107.387 182.15 107.387 184.25C107.387 186.35 107.337 188.167 107.237 189.7C107.137 191.2 106.887 192.45 106.487 193.45C106.12 194.45 105.52 195.233 104.687 195.8C103.887 196.367 102.804 196.767 101.437 197C100.07 197.267 98.3204 197.4 96.1871 197.4ZM96.1871 193.95C97.9871 193.95 99.3704 193.833 100.337 193.6C101.304 193.367 101.987 192.917 102.387 192.25C102.82 191.583 103.07 190.617 103.137 189.35C103.237 188.05 103.287 186.35 103.287 184.25C103.287 182.15 103.237 180.467 103.137 179.2C103.07 177.9 102.82 176.917 102.387 176.25C101.987 175.583 101.304 175.133 100.337 174.9C99.3704 174.667 97.9871 174.55 96.1871 174.55C94.4204 174.55 93.0371 174.667 92.0371 174.9C91.0704 175.133 90.3871 175.583 89.9871 176.25C89.5871 176.917 89.3371 177.9 89.2371 179.2C89.1371 180.467 89.0871 182.15 89.0871 184.25C89.0871 186.35 89.1371 188.05 89.2371 189.35C89.3371 190.617 89.5871 191.583 89.9871 192.25C90.3871 192.917 91.0704 193.367 92.0371 193.6C93.0371 193.833 94.4204 193.95 96.1871 193.95ZM114.945 197V171.5H118.645L118.795 175.15H119.095C119.461 174.35 119.961 173.65 120.595 173.05C121.261 172.45 122.145 171.983 123.245 171.65C124.378 171.283 125.811 171.1 127.545 171.1C129.445 171.1 130.961 171.3 132.095 171.7C133.228 172.1 134.095 172.7 134.695 173.5C135.328 174.3 135.745 175.333 135.945 176.6C136.145 177.833 136.245 179.317 136.245 181.05V197H132.195V182.45C132.195 180.717 132.111 179.35 131.945 178.35C131.811 177.317 131.528 176.55 131.095 176.05C130.661 175.517 130.028 175.167 129.195 175C128.361 174.833 127.261 174.75 125.895 174.75C124.261 174.75 122.978 174.967 122.045 175.4C121.111 175.8 120.428 176.4 119.995 177.2C119.561 177.967 119.295 178.917 119.195 180.05C119.095 181.15 119.045 182.417 119.045 183.85V197H114.945ZM153.994 197V193.45C155.794 193.417 157.177 193.317 158.144 193.15C159.11 192.983 159.81 192.633 160.244 192.1C160.677 191.533 160.927 190.65 160.994 189.45C161.094 188.217 161.144 186.517 161.144 184.35V162.6H165.444V183C165.444 185.667 165.394 187.883 165.294 189.65C165.194 191.383 164.96 192.75 164.594 193.75C164.227 194.717 163.627 195.433 162.794 195.9C161.994 196.367 160.877 196.667 159.444 196.8C158.044 196.933 156.227 197 153.994 197ZM181.267 197.4C179.401 197.4 177.834 197.183 176.567 196.75C175.334 196.317 174.401 195.567 173.767 194.5C173.167 193.433 172.867 191.933 172.867 190C172.867 188.067 173.084 186.55 173.517 185.45C173.984 184.317 174.784 183.517 175.917 183.05C177.051 182.583 178.634 182.35 180.667 182.35C181.001 182.35 181.517 182.367 182.217 182.4C182.951 182.4 183.784 182.417 184.717 182.45C185.651 182.45 186.584 182.467 187.517 182.5C188.484 182.5 189.367 182.517 190.167 182.55V180.95C190.167 179.45 190.067 178.283 189.867 177.45C189.701 176.583 189.334 175.95 188.767 175.55C188.201 175.117 187.401 174.85 186.367 174.75C185.367 174.617 184.034 174.55 182.367 174.55C181.634 174.55 180.767 174.583 179.767 174.65C178.767 174.683 177.784 174.75 176.817 174.85C175.884 174.917 175.134 175 174.567 175.1V171.8C175.834 171.567 177.251 171.4 178.817 171.3C180.417 171.167 182.067 171.1 183.767 171.1C185.567 171.1 187.084 171.217 188.317 171.45C189.584 171.65 190.601 171.983 191.367 172.45C192.167 172.917 192.767 173.533 193.167 174.3C193.567 175.067 193.834 176 193.967 177.1C194.134 178.2 194.217 179.483 194.217 180.95V197H190.567L190.417 193.4H190.117C189.584 194.567 188.817 195.45 187.817 196.05C186.851 196.617 185.784 196.983 184.617 197.15C183.451 197.317 182.334 197.4 181.267 197.4ZM182.767 194.05C183.734 194.05 184.634 194 185.467 193.9C186.301 193.767 187.034 193.533 187.667 193.2C188.301 192.867 188.801 192.367 189.167 191.7C189.534 191 189.784 190.25 189.917 189.45C190.084 188.617 190.167 187.65 190.167 186.55V185.25H181.667C180.367 185.25 179.367 185.35 178.667 185.55C177.967 185.75 177.484 186.167 177.217 186.8C176.984 187.433 176.867 188.383 176.867 189.65C176.867 190.883 177.017 191.817 177.317 192.45C177.617 193.083 178.184 193.517 179.017 193.75C179.884 193.95 181.134 194.05 182.767 194.05ZM202.884 197V171.5H206.584L206.734 175.15H207.034C207.401 174.35 207.901 173.65 208.534 173.05C209.201 172.45 210.084 171.983 211.184 171.65C212.317 171.283 213.751 171.1 215.484 171.1C217.384 171.1 218.901 171.3 220.034 171.7C221.167 172.1 222.034 172.7 222.634 173.5C223.267 174.3 223.684 175.333 223.884 176.6C224.084 177.833 224.184 179.317 224.184 181.05V197H220.134V182.45C220.134 180.717 220.051 179.35 219.884 178.35C219.751 177.317 219.467 176.55 219.034 176.05C218.601 175.517 217.967 175.167 217.134 175C216.301 174.833 215.201 174.75 213.834 174.75C212.201 174.75 210.917 174.967 209.984 175.4C209.051 175.8 208.367 176.4 207.934 177.2C207.501 177.967 207.234 178.917 207.134 180.05C207.034 181.15 206.984 182.417 206.984 183.85V197H202.884ZM231.116 197V193.85L245.966 174.95H231.716V171.5H251.216V174.65L236.416 193.55H251.316V197H231.116ZM268.306 197.4C266.206 197.4 264.456 197.267 263.056 197C261.69 196.767 260.606 196.367 259.806 195.8C259.006 195.233 258.406 194.45 258.006 193.45C257.64 192.45 257.406 191.2 257.306 189.7C257.206 188.167 257.156 186.35 257.156 184.25C257.156 182.15 257.206 180.35 257.306 178.85C257.406 177.317 257.64 176.05 258.006 175.05C258.406 174.05 259.006 173.267 259.806 172.7C260.606 172.133 261.69 171.733 263.056 171.5C264.456 171.233 266.206 171.1 268.306 171.1C270.44 171.1 272.19 171.233 273.556 171.5C274.923 171.733 276.006 172.133 276.806 172.7C277.64 173.267 278.24 174.05 278.606 175.05C279.006 176.05 279.256 177.317 279.356 178.85C279.456 180.35 279.506 182.15 279.506 184.25C279.506 186.35 279.456 188.167 279.356 189.7C279.256 191.2 279.006 192.45 278.606 193.45C278.24 194.45 277.64 195.233 276.806 195.8C276.006 196.367 274.923 196.767 273.556 197C272.19 197.267 270.44 197.4 268.306 197.4ZM268.306 193.95C270.106 193.95 271.49 193.833 272.456 193.6C273.423 193.367 274.106 192.917 274.506 192.25C274.94 191.583 275.19 190.617 275.256 189.35C275.356 188.05 275.406 186.35 275.406 184.25C275.406 182.15 275.356 180.467 275.256 179.2C275.19 177.9 274.94 176.917 274.506 176.25C274.106 175.583 273.423 175.133 272.456 174.9C271.49 174.667 270.106 174.55 268.306 174.55C266.54 174.55 265.156 174.667 264.156 174.9C263.19 175.133 262.506 175.583 262.106 176.25C261.706 176.917 261.456 177.9 261.356 179.2C261.256 180.467 261.206 182.15 261.206 184.25C261.206 186.35 261.256 188.05 261.356 189.35C261.456 190.617 261.706 191.583 262.106 192.25C262.506 192.917 263.19 193.367 264.156 193.6C265.156 193.833 266.54 193.95 268.306 193.95ZM287.064 197V171.5H290.764L290.914 175.15H291.214C291.58 174.35 292.08 173.65 292.714 173.05C293.38 172.45 294.264 171.983 295.364 171.65C296.497 171.283 297.93 171.1 299.664 171.1C301.564 171.1 303.08 171.3 304.214 171.7C305.347 172.1 306.214 172.7 306.814 173.5C307.447 174.3 307.864 175.333 308.064 176.6C308.264 177.833 308.364 179.317 308.364 181.05V197H304.314V182.45C304.314 180.717 304.23 179.35 304.064 178.35C303.93 177.317 303.647 176.55 303.214 176.05C302.78 175.517 302.147 175.167 301.314 175C300.48 174.833 299.38 174.75 298.014 174.75C296.38 174.75 295.097 174.967 294.164 175.4C293.23 175.8 292.547 176.4 292.114 177.2C291.68 177.967 291.414 178.917 291.314 180.05C291.214 181.15 291.164 182.417 291.164 183.85V197H287.064Z" fill="#f97316"/>
<path d="M37.886 238V220.112H48.572V221.256H39.134V228.77H47.61V229.888H39.134V238H37.886ZM52.1216 238V224.74H53.1096L53.2136 227.496H53.3176C53.5256 226.699 53.8463 226.083 54.2796 225.65C54.7303 225.217 55.2589 224.922 55.8656 224.766C56.4723 224.61 57.1396 224.532 57.8676 224.532V225.754C56.6196 225.754 55.6663 225.971 55.0076 226.404C54.3489 226.837 53.8983 227.479 53.6556 228.328C53.4303 229.177 53.3176 230.217 53.3176 231.448V238H52.1216ZM66.0263 238.208C64.9517 238.208 64.0677 238.147 63.3743 238.026C62.681 237.922 62.1263 237.723 61.7103 237.428C61.3117 237.133 61.017 236.726 60.8263 236.206C60.6357 235.686 60.5143 235.036 60.4623 234.256C60.4103 233.459 60.3843 232.505 60.3843 231.396C60.3843 230.269 60.4103 229.316 60.4623 228.536C60.5143 227.739 60.6357 227.08 60.8263 226.56C61.017 226.04 61.3117 225.633 61.7103 225.338C62.1263 225.043 62.681 224.835 63.3743 224.714C64.0677 224.593 64.9517 224.532 66.0263 224.532C67.0837 224.532 67.959 224.593 68.6523 224.714C69.3457 224.835 69.8917 225.043 70.2903 225.338C70.7063 225.633 71.0097 226.04 71.2003 226.56C71.4083 227.08 71.5383 227.739 71.5903 228.536C71.6423 229.316 71.6683 230.269 71.6683 231.396C71.6683 232.505 71.6423 233.459 71.5903 234.256C71.5383 235.036 71.4083 235.686 71.2003 236.206C71.0097 236.726 70.7063 237.133 70.2903 237.428C69.8917 237.723 69.3457 237.922 68.6523 238.026C67.959 238.147 67.0837 238.208 66.0263 238.208ZM66.0263 237.142C67.1357 237.142 67.9937 237.073 68.6003 236.934C69.207 236.778 69.6403 236.501 69.9003 236.102C70.1603 235.703 70.3163 235.123 70.3683 234.36C70.4203 233.597 70.4463 232.609 70.4463 231.396C70.4463 230.165 70.4203 229.169 70.3683 228.406C70.3163 227.643 70.1603 227.063 69.9003 226.664C69.6403 226.248 69.207 225.971 68.6003 225.832C67.9937 225.676 67.1357 225.598 66.0263 225.598C64.917 225.598 64.0503 225.676 63.4263 225.832C62.8197 225.971 62.3863 226.248 62.1263 226.664C61.8663 227.063 61.7103 227.643 61.6583 228.406C61.6063 229.169 61.5803 230.165 61.5803 231.396C61.5803 232.609 61.6063 233.597 61.6583 234.36C61.7103 235.123 61.8663 235.703 62.1263 236.102C62.3863 236.501 62.8197 236.778 63.4263 236.934C64.0503 237.073 64.917 237.142 66.0263 237.142ZM76.065 238V224.74H77.079L77.157 226.846H77.261C77.417 226.43 77.651 226.049 77.963 225.702C78.2923 225.355 78.769 225.078 79.393 224.87C80.017 224.645 80.8576 224.532 81.915 224.532C82.955 224.532 83.787 224.636 84.411 224.844C85.0523 225.035 85.5376 225.329 85.867 225.728C86.1963 226.127 86.413 226.655 86.517 227.314C86.6383 227.973 86.699 228.761 86.699 229.68V238H85.503V229.966C85.503 229.013 85.451 228.25 85.347 227.678C85.2603 227.106 85.0696 226.673 84.775 226.378C84.4976 226.066 84.099 225.867 83.579 225.78C83.0763 225.676 82.409 225.624 81.577 225.624C80.5023 225.624 79.6703 225.763 79.081 226.04C78.4916 226.317 78.067 226.707 77.807 227.21C77.547 227.695 77.391 228.276 77.339 228.952C77.287 229.628 77.261 230.356 77.261 231.136V238H76.065ZM92.745 238V225.806H89.963V224.74H92.745V220.892H93.941V224.74H97.191V225.806H93.941V238H92.745ZM106.72 238V220.112H117.926V221.256H107.968V228.38H116.704V229.524H107.968V236.856H117.926V238H106.72ZM121.92 238V224.74H122.934L123.012 226.846H123.116C123.272 226.43 123.506 226.049 123.818 225.702C124.148 225.355 124.624 225.078 125.248 224.87C125.872 224.645 126.713 224.532 127.77 224.532C128.81 224.532 129.642 224.636 130.266 224.844C130.908 225.035 131.393 225.329 131.722 225.728C132.052 226.127 132.268 226.655 132.372 227.314C132.494 227.973 132.554 228.761 132.554 229.68V238H131.358V229.966C131.358 229.013 131.306 228.25 131.202 227.678C131.116 227.106 130.925 226.673 130.63 226.378C130.353 226.066 129.954 225.867 129.434 225.78C128.932 225.676 128.264 225.624 127.432 225.624C126.358 225.624 125.526 225.763 124.936 226.04C124.347 226.317 123.922 226.707 123.662 227.21C123.402 227.695 123.246 228.276 123.194 228.952C123.142 229.628 123.116 230.356 123.116 231.136V238H121.92ZM142.11 238.208C141.036 238.208 140.16 238.113 139.484 237.922C138.808 237.714 138.288 237.359 137.924 236.856C137.56 236.353 137.309 235.66 137.17 234.776C137.032 233.892 136.962 232.757 136.962 231.37C136.962 230.001 137.032 228.874 137.17 227.99C137.309 227.089 137.56 226.387 137.924 225.884C138.288 225.381 138.8 225.035 139.458 224.844C140.134 224.636 141.01 224.532 142.084 224.532C142.899 224.532 143.61 224.601 144.216 224.74C144.823 224.861 145.334 225.078 145.75 225.39C146.166 225.685 146.478 226.092 146.686 226.612H146.816V218.682H148.012V238H146.998L146.92 235.894H146.79C146.548 236.57 146.184 237.073 145.698 237.402C145.213 237.731 144.658 237.948 144.034 238.052C143.41 238.156 142.769 238.208 142.11 238.208ZM142.5 237.116C143.575 237.116 144.433 236.969 145.074 236.674C145.733 236.379 146.175 235.911 146.4 235.27C146.608 234.681 146.73 234.057 146.764 233.398C146.799 232.739 146.816 231.959 146.816 231.058C146.816 230.434 146.799 229.836 146.764 229.264C146.73 228.675 146.634 228.155 146.478 227.704C146.201 226.941 145.733 226.404 145.074 226.092C144.433 225.78 143.532 225.624 142.37 225.624C141.469 225.624 140.732 225.693 140.16 225.832C139.606 225.953 139.181 226.213 138.886 226.612C138.592 226.993 138.392 227.565 138.288 228.328C138.202 229.091 138.158 230.105 138.158 231.37C138.158 232.635 138.21 233.649 138.314 234.412C138.418 235.175 138.618 235.755 138.912 236.154C139.207 236.535 139.64 236.795 140.212 236.934C140.784 237.055 141.547 237.116 142.5 237.116ZM159.304 238V220.112H164.738C166.142 220.112 167.295 220.173 168.196 220.294C169.115 220.415 169.834 220.649 170.354 220.996C170.891 221.343 171.29 221.854 171.55 222.53C171.81 223.189 171.975 224.047 172.044 225.104C172.113 226.161 172.148 227.479 172.148 229.056C172.148 230.633 172.113 231.951 172.044 233.008C171.975 234.065 171.81 234.932 171.55 235.608C171.29 236.267 170.891 236.769 170.354 237.116C169.834 237.463 169.115 237.697 168.196 237.818C167.295 237.939 166.142 238 164.738 238H159.304ZM160.552 236.856H164.244C165.509 236.856 166.549 236.83 167.364 236.778C168.196 236.726 168.846 236.579 169.314 236.336C169.799 236.093 170.146 235.695 170.354 235.14C170.579 234.585 170.727 233.814 170.796 232.826C170.865 231.838 170.9 230.581 170.9 229.056C170.9 227.531 170.865 226.274 170.796 225.286C170.727 224.298 170.579 223.527 170.354 222.972C170.129 222.417 169.773 222.019 169.288 221.776C168.803 221.533 168.153 221.386 167.338 221.334C166.523 221.282 165.492 221.256 164.244 221.256H160.552V236.856ZM182.012 238.208C181.007 238.208 180.157 238.139 179.464 238C178.788 237.879 178.242 237.671 177.826 237.376C177.41 237.064 177.089 236.648 176.864 236.128C176.639 235.608 176.491 234.958 176.422 234.178C176.353 233.398 176.318 232.471 176.318 231.396C176.318 230.113 176.361 229.039 176.448 228.172C176.535 227.288 176.751 226.586 177.098 226.066C177.462 225.529 178.034 225.139 178.814 224.896C179.594 224.653 180.669 224.532 182.038 224.532C183.009 224.532 183.806 224.61 184.43 224.766C185.054 224.905 185.548 225.13 185.912 225.442C186.276 225.737 186.545 226.153 186.718 226.69C186.891 227.227 187.004 227.877 187.056 228.64C187.108 229.403 187.134 230.304 187.134 231.344V231.786H177.514C177.514 232.861 177.557 233.753 177.644 234.464C177.748 235.157 177.947 235.703 178.242 236.102C178.554 236.501 179.022 236.778 179.646 236.934C180.287 237.073 181.145 237.142 182.22 237.142C182.671 237.142 183.156 237.133 183.676 237.116C184.213 237.081 184.733 237.038 185.236 236.986C185.756 236.934 186.215 236.873 186.614 236.804V237.87C186.267 237.939 185.834 238 185.314 238.052C184.811 238.104 184.274 238.139 183.702 238.156C183.13 238.191 182.567 238.208 182.012 238.208ZM185.938 231.292V230.304C185.938 229.247 185.877 228.406 185.756 227.782C185.635 227.158 185.427 226.69 185.132 226.378C184.837 226.049 184.43 225.841 183.91 225.754C183.39 225.65 182.74 225.598 181.96 225.598C180.955 225.598 180.157 225.659 179.568 225.78C178.979 225.901 178.528 226.144 178.216 226.508C177.921 226.872 177.731 227.392 177.644 228.068C177.557 228.744 177.514 229.645 177.514 230.772H186.458L185.938 231.292ZM195.13 238L189.852 224.74H191.126L195.728 236.492H195.884L200.486 224.74H201.734L196.456 238H195.13ZM209.942 238.208C208.936 238.208 208.087 238.139 207.394 238C206.718 237.879 206.172 237.671 205.756 237.376C205.34 237.064 205.019 236.648 204.794 236.128C204.568 235.608 204.421 234.958 204.352 234.178C204.282 233.398 204.248 232.471 204.248 231.396C204.248 230.113 204.291 229.039 204.378 228.172C204.464 227.288 204.681 226.586 205.028 226.066C205.392 225.529 205.964 225.139 206.744 224.896C207.524 224.653 208.598 224.532 209.968 224.532C210.938 224.532 211.736 224.61 212.36 224.766C212.984 224.905 213.478 225.13 213.842 225.442C214.206 225.737 214.474 226.153 214.648 226.69C214.821 227.227 214.934 227.877 214.986 228.64C215.038 229.403 215.064 230.304 215.064 231.344V231.786H205.444C205.444 232.861 205.487 233.753 205.574 234.464C205.678 235.157 205.877 235.703 206.172 236.102C206.484 236.501 206.952 236.778 207.576 236.934C208.217 237.073 209.075 237.142 210.15 237.142C210.6 237.142 211.086 237.133 211.606 237.116C212.143 237.081 212.663 237.038 213.166 236.986C213.686 236.934 214.145 236.873 214.544 236.804V237.87C214.197 237.939 213.764 238 213.244 238.052C212.741 238.104 212.204 238.139 211.632 238.156C211.06 238.191 210.496 238.208 209.942 238.208ZM213.868 231.292V230.304C213.868 229.247 213.807 228.406 213.686 227.782C213.564 227.158 213.356 226.69 213.062 226.378C212.767 226.049 212.36 225.841 211.84 225.754C211.32 225.65 210.67 225.598 209.89 225.598C208.884 225.598 208.087 225.659 207.498 225.78C206.908 225.901 206.458 226.144 206.146 226.508C205.851 226.872 205.66 227.392 205.574 228.068C205.487 228.744 205.444 229.645 205.444 230.772H214.388L213.868 231.292ZM219.446 238V218.682H220.642V238H219.446ZM230.71 238.208C229.635 238.208 228.751 238.147 228.058 238.026C227.365 237.922 226.81 237.723 226.394 237.428C225.995 237.133 225.701 236.726 225.51 236.206C225.319 235.686 225.198 235.036 225.146 234.256C225.094 233.459 225.068 232.505 225.068 231.396C225.068 230.269 225.094 229.316 225.146 228.536C225.198 227.739 225.319 227.08 225.51 226.56C225.701 226.04 225.995 225.633 226.394 225.338C226.81 225.043 227.365 224.835 228.058 224.714C228.751 224.593 229.635 224.532 230.71 224.532C231.767 224.532 232.643 224.593 233.336 224.714C234.029 224.835 234.575 225.043 234.974 225.338C235.39 225.633 235.693 226.04 235.884 226.56C236.092 227.08 236.222 227.739 236.274 228.536C236.326 229.316 236.352 230.269 236.352 231.396C236.352 232.505 236.326 233.459 236.274 234.256C236.222 235.036 236.092 235.686 235.884 236.206C235.693 236.726 235.39 237.133 234.974 237.428C234.575 237.723 234.029 237.922 233.336 238.026C232.643 238.147 231.767 238.208 230.71 238.208ZM230.71 237.142C231.819 237.142 232.677 237.073 233.284 236.934C233.891 236.778 234.324 236.501 234.584 236.102C234.844 235.703 235 235.123 235.052 234.36C235.104 233.597 235.13 232.609 235.13 231.396C235.13 230.165 235.104 229.169 235.052 228.406C235 227.643 234.844 227.063 234.584 226.664C234.324 226.248 233.891 225.971 233.284 225.832C232.677 225.676 231.819 225.598 230.71 225.598C229.601 225.598 228.734 225.676 228.11 225.832C227.503 225.971 227.07 226.248 226.81 226.664C226.55 227.063 226.394 227.643 226.342 228.406C226.29 229.169 226.264 230.165 226.264 231.396C226.264 232.609 226.29 233.597 226.342 234.36C226.394 235.123 226.55 235.703 226.81 236.102C227.07 236.501 227.503 236.778 228.11 236.934C228.734 237.073 229.601 237.142 230.71 237.142ZM240.749 243.2V224.74H241.763L241.841 226.846H241.945C242.187 226.17 242.551 225.667 243.037 225.338C243.522 225.009 244.077 224.792 244.701 224.688C245.325 224.584 245.975 224.532 246.651 224.532C247.725 224.532 248.601 224.636 249.277 224.844C249.953 225.035 250.473 225.381 250.837 225.884C251.201 226.387 251.452 227.08 251.591 227.964C251.729 228.848 251.799 229.983 251.799 231.37C251.799 232.739 251.729 233.875 251.591 234.776C251.452 235.66 251.201 236.353 250.837 236.856C250.473 237.359 249.953 237.714 249.277 237.922C248.601 238.113 247.734 238.208 246.677 238.208C245.862 238.208 245.143 238.139 244.519 238C243.912 237.879 243.401 237.671 242.985 237.376C242.586 237.064 242.274 236.648 242.049 236.128H241.945V243.2H240.749ZM246.261 237.116C247.197 237.116 247.951 237.055 248.523 236.934C249.112 236.795 249.554 236.535 249.849 236.154C250.143 235.755 250.343 235.175 250.447 234.412C250.551 233.649 250.603 232.635 250.603 231.37C250.603 230.105 250.551 229.091 250.447 228.328C250.343 227.565 250.143 226.993 249.849 226.612C249.554 226.213 249.112 225.953 248.523 225.832C247.951 225.693 247.197 225.624 246.261 225.624C245.169 225.624 244.293 225.78 243.635 226.092C242.993 226.387 242.551 226.889 242.309 227.6C242.135 228.12 242.031 228.692 241.997 229.316C241.962 229.923 241.945 230.607 241.945 231.37C241.945 232.15 241.962 232.843 241.997 233.45C242.031 234.039 242.109 234.533 242.231 234.932C242.508 235.729 242.976 236.293 243.635 236.622C244.293 236.951 245.169 237.116 246.261 237.116ZM261.281 238.208C260.276 238.208 259.427 238.139 258.733 238C258.057 237.879 257.511 237.671 257.095 237.376C256.679 237.064 256.359 236.648 256.133 236.128C255.908 235.608 255.761 234.958 255.691 234.178C255.622 233.398 255.587 232.471 255.587 231.396C255.587 230.113 255.631 229.039 255.717 228.172C255.804 227.288 256.021 226.586 256.367 226.066C256.731 225.529 257.303 225.139 258.083 224.896C258.863 224.653 259.938 224.532 261.307 224.532C262.278 224.532 263.075 224.61 263.699 224.766C264.323 224.905 264.817 225.13 265.181 225.442C265.545 225.737 265.814 226.153 265.987 226.69C266.161 227.227 266.273 227.877 266.325 228.64C266.377 229.403 266.403 230.304 266.403 231.344V231.786H256.783C256.783 232.861 256.827 233.753 256.913 234.464C257.017 235.157 257.217 235.703 257.511 236.102C257.823 236.501 258.291 236.778 258.915 236.934C259.557 237.073 260.415 237.142 261.489 237.142C261.94 237.142 262.425 237.133 262.945 237.116C263.483 237.081 264.003 237.038 264.505 236.986C265.025 236.934 265.485 236.873 265.883 236.804V237.87C265.537 237.939 265.103 238 264.583 238.052C264.081 238.104 263.543 238.139 262.971 238.156C262.399 238.191 261.836 238.208 261.281 238.208ZM265.207 231.292V230.304C265.207 229.247 265.147 228.406 265.025 227.782C264.904 227.158 264.696 226.69 264.401 226.378C264.107 226.049 263.699 225.841 263.179 225.754C262.659 225.65 262.009 225.598 261.229 225.598C260.224 225.598 259.427 225.659 258.837 225.78C258.248 225.901 257.797 226.144 257.485 226.508C257.191 226.872 257 227.392 256.913 228.068C256.827 228.744 256.783 229.645 256.783 230.772H265.727L265.207 231.292ZM270.786 238V224.74H271.774L271.878 227.496H271.982C272.19 226.699 272.51 226.083 272.944 225.65C273.394 225.217 273.923 224.922 274.53 224.766C275.136 224.61 275.804 224.532 276.532 224.532V225.754C275.284 225.754 274.33 225.971 273.672 226.404C273.013 226.837 272.562 227.479 272.32 228.328C272.094 229.177 271.982 230.217 271.982 231.448V238H270.786Z" fill="#f97316"/>
<line y1="230.5" x2="30" y2="230.5" stroke="#f97316"/>
<line x1="283" y1="230.5" x2="313" y2="230.5" stroke="#f97316"/>
<path d="M152 2.88675C155.094 1.10042 158.906 1.10042 162 2.88675L212.622 32.1133C215.716 33.8996 217.622 37.2008 217.622 40.7735V99.2265C217.622 102.799 215.716 106.1 212.622 107.887L162 137.113C158.906 138.9 155.094 138.9 152 137.113L101.378 107.887C98.2842 106.1 96.3782 102.799 96.3782 99.2265V40.7735C96.3782 37.2008 98.2842 33.8996 101.378 32.1132L152 2.88675Z" fill="#f97316"/>
<path d="M129.512 89L143.552 51.848H149.384L163.37 89H158.564L154.73 78.848H138.044L134.21 89H129.512ZM139.448 74.798H153.326L146.522 56.6H146.252L139.448 74.798ZM166.696 89V85.166C168.64 85.13 170.134 85.022 171.178 84.842C172.222 84.662 172.978 84.284 173.446 83.708C173.914 83.096 174.184 82.142 174.256 80.846C174.364 79.514 174.418 77.678 174.418 75.338V51.848H179.062V73.88C179.062 76.76 179.008 79.154 178.9 81.062C178.792 82.934 178.54 84.41 178.144 85.49C177.748 86.534 177.1 87.308 176.2 87.812C175.336 88.316 174.13 88.64 172.582 88.784C171.07 88.928 169.108 89 166.696 89Z" fill="#111827"/>
</svg>
